<svg id="Capa_1" enable-background="new 0 0 512.097 512.097" height="512" viewBox="0 0 512.097 512.097" width="512" xmlns="http://www.w3.org/2000/svg"><g><circle cx="256.049" cy="256.049" fill="#f9f9f9" r="240"/><path d="m256.049 16.049c132.55 0 240 107.45 240 240s-107.45 240-240 240z" fill="#f4ead8"/><path d="m336.049 111.049v290c0 8.28-6.72 15-15 15h-130c-8.28 0-15-6.72-15-15v-290c0-8.28 6.72-15 15-15h130c8.28 0 15 6.719 15 15z" fill="#b1d5f1"/><path d="m336.049 111.049v290c0 8.28-6.72 15-15 15h-65v-320h65c8.28 0 15 6.719 15 15z" fill="#989dec"/><path d="m321.049 81.049h-130c-16.54 0-30 13.46-30 30v290c0 16.54 13.46 30 30 30h130c16.54 0 30-13.46 30-30v-290c0-16.54-13.46-30-30-30zm-130 271v-241h130l.02 241z" fill="#0d8ebc"/><path d="m351.049 111.049v290c0 16.54-13.46 30-30 30h-65v-79h65.02l-.02-241h-65v-30h65c16.54 0 30 13.46 30 30z" fill="#0a617d"/><path d="m436.859 75.239c-100.189-100.21-261.127-100.39-361.51-.11-.04.04-.08.07-.12.1-.03.04-.06.08-.1.12-100.151 100.254-100.227 261.194.11 361.51 100.188 100.209 261.125 100.391 361.51.11.04-.04.08-.07.12-.1.03-.04.06-.08.1-.12 100.15-100.254 100.227-261.194-.11-361.51zm-180.81 406.81c-124.62 0-226-101.38-226-226 0-56.92 21.16-108.99 56.02-148.77 8.485 8.485 309.625 309.625 318.75 318.75-39.78 34.86-91.85 56.02-148.77 56.02zm169.98-77.23-318.75-318.75c39.78-34.86 91.85-56.02 148.77-56.02 124.62 0 226 101.38 226 226 0 56.92-21.16 108.99-56.02 148.77z" fill="#ff6378"/><path d="m512.097 256.049c0 141.221-115.386 256.049-256.048 256.049v-30.049c56.92 0 108.99-21.16 148.77-56.02l-148.77-148.77v-42.42l169.98 169.98c34.86-39.78 56.02-91.85 56.02-148.77 0-124.62-101.38-226-226-226v-30.049c140.966 0 256.048 115.104 256.048 256.049z" fill="#d0004f"/></g></svg>