<?xml version="1.0" encoding="iso-8859-1"?>
<!-- Generator: Adobe Illustrator 19.0.0, SVG Export Plug-In . SVG Version: 6.00 Build 0)  -->
<svg xmlns="http://www.w3.org/2000/svg" xmlns:xlink="http://www.w3.org/1999/xlink" version="1.1" id="Layer_1" x="0px" y="0px" viewBox="0 0 512 512" style="enable-background:new 0 0 512 512;" xml:space="preserve" width="512" height="512">
<g>
	
		<linearGradient id="XMLID_61_" gradientUnits="userSpaceOnUse" x1="0" y1="-19850" x2="512" y2="-19850" gradientTransform="matrix(1 0 0 -1 0 -19594)">
		<stop offset="0" style="stop-color:#31D8FF"/>
		<stop offset="1" style="stop-color:#FF80FF"/>
	</linearGradient>
	<circle id="XMLID_53_" style="fill:url(#XMLID_61_);" cx="256" cy="256" r="256"/>
	<path style="fill:#FFFFFF;" d="M398.595,115.915c-0.364-0.461-0.749-0.91-1.175-1.336c-0.425-0.425-0.874-0.81-1.335-1.174   C359.975,77.924,310.503,56,256,56C145.72,56,56,145.72,56,256c0,54.503,21.924,103.975,57.405,140.085   c0.364,0.461,0.749,0.91,1.175,1.336c0.425,0.425,0.875,0.811,1.335,1.174C152.025,434.076,201.497,456,256,456   c110.28,0,200-89.72,200-200C456,201.497,434.076,152.025,398.595,115.915z M256,86c41.48,0,79.531,14.941,109.073,39.714   l-62.104,62.104c-2.765-3.439-7.001-5.609-11.694-5.609h-70.551c-7.552,0-13.926,5.613-14.88,13.104l-2.325,18.251H177.61   c-8.284,0-15,6.716-15,15v86.229c0,3.731,1.37,7.136,3.624,9.76l-40.521,40.521C100.941,335.531,86,297.48,86,256   C86,162.262,162.262,86,256,86z M295.27,243.563h24.12v56.229h-85.969l57.035-57.035   C291.973,243.272,293.589,243.563,295.27,243.563z M192.61,298.177v-54.613h24.12c7.552,0,13.926-5.613,14.88-13.104l2.325-18.251   h44.129l0.058,0.457L192.61,298.177z M256,426c-41.48,0-79.531-14.941-109.073-39.714l56.494-56.494H334.39c8.284,0,15-6.716,15-15   v-86.229c0-8.284-6.716-15-15-15h-14.74l66.637-66.637C411.059,176.469,426,214.52,426,256C426,349.738,349.738,426,256,426z"/>
</g>















</svg>
