<svg id="Line" height="512" viewBox="0 0 64 64" width="512" xmlns="http://www.w3.org/2000/svg"><rect fill="#c4a2fc" height="30" rx="3" width="14" x="13.001" y="33"/><path d="m60.006 37h-14.7c.422-2.473 3.369-8.126.779-15.9a5.992 5.992 0 0 0 -5.691-4.1 4.4 4.4 0 0 0 -4.394 4.4c0 6.074-2.5 9.516-3.576 12.349a1 1 0 0 1 -.635.55l-2.789.801v25.529l4.075 2.05a3.006 3.006 0 0 0 1.349.321h18.95a2.99 2.99 0 0 0 2.843-2.053l6.629-20.015a2.99 2.99 0 0 0 -2.84-3.932z" fill="#c4a2fc"/><g fill="#151a6a"><path d="m48 1h-44a3 3 0 0 0 -3 3v32a3 3 0 0 0 3 3h29.1a1 1 0 0 1 .747.335 1.041 1.041 0 0 0 .155.142l15.4 11.329a1 1 0 0 0 1.598-.806v-46a3 3 0 0 0 -3-3zm1 47.023-13.735-10.1a3 3 0 0 0 -2.165-.923h-29.1a1 1 0 0 1 -1-1v-32a1 1 0 0 1 1-1h44a1 1 0 0 1 1 1z"/><path d="m23.151 17.123-5-.764-2.246-4.784a1 1 0 0 0 -1.81 0l-2.246 4.784-5 .764a1 1 0 0 0 -.565 1.687l3.648 3.738-.863 5.291a1 1 0 0 0 1.471 1.036l4.46-2.465 4.46 2.465a1 1 0 0 0 1.471-1.036l-.863-5.291 3.648-3.738a1 1 0 0 0 -.565-1.687zm-4.867 4.39a1 1 0 0 0 -.271.859l.613 3.756-3.142-1.736a1 1 0 0 0 -.968 0l-3.142 1.736.613-3.756a1 1 0 0 0 -.271-.859l-2.641-2.707 3.6-.55a1 1 0 0 0 .754-.564l1.571-3.338 1.567 3.338a1 1 0 0 0 .754.564l3.6.55z"/><path d="m45.151 17.123-5-.764-2.246-4.784a1 1 0 0 0 -1.81 0l-2.246 4.784-5 .764a1 1 0 0 0 -.565 1.687l3.648 3.738-.863 5.291a1 1 0 0 0 1.471 1.036l4.46-2.465 4.46 2.465a1 1 0 0 0 1.471-1.036l-.863-5.291 3.648-3.738a1 1 0 0 0 -.565-1.687zm-4.867 4.39a1 1 0 0 0 -.271.859l.613 3.756-3.142-1.736a1 1 0 0 0 -.968 0l-3.142 1.736.613-3.756a1 1 0 0 0 -.271-.859l-2.641-2.707 3.6-.55a1 1 0 0 0 .754-.564l1.571-3.338 1.567 3.338a1 1 0 0 0 .754.564l3.6.55z"/></g></svg>